<svg id="svg" xmlns="http://www.w3.org/2000/svg" xmlns:xlink="http://www.w3.org/1999/xlink" width="400" height="400" viewBox="0, 0, 400,400"><g id="svgg"><path id="path0" d="M162.000 1.127 C 149.510 4.222,144.222 10.503,133.658 34.790 L 131.922 38.779 129.636 34.599 C 113.823 5.683,86.934 1.910,61.893 25.093 C 55.694 30.834,52.949 35.751,50.870 44.846 C 40.766 89.045,46.059 175.886,61.703 222.581 L 64.187 229.993 58.595 235.231 C 50.787 242.545,39.726 248.000,32.702 248.000 C 29.778 248.000,29.606 248.389,28.349 257.862 C 21.553 309.082,28.439 347.992,48.197 370.014 C 50.164 372.206,52.594 375.612,53.597 377.583 C 55.893 382.097,69.573 395.402,74.381 397.797 L 78.000 399.600 200.000 399.600 L 322.000 399.600 325.619 397.797 C 330.420 395.405,344.104 382.100,346.408 377.585 C 347.412 375.615,349.928 372.023,351.997 369.602 C 371.489 346.796,377.719 312.646,371.934 260.320 C 370.657 248.776,370.338 248.000,366.856 248.000 C 359.884 248.000,347.562 241.638,340.278 234.276 L 335.717 229.668 338.642 220.234 C 352.218 176.442,357.831 106.841,351.587 59.728 C 348.392 35.622,344.665 28.593,329.704 18.461 C 307.648 3.524,285.171 8.891,271.439 32.372 C 267.604 38.931,268.408 39.473,262.450 26.322 C 255.150 10.212,248.754 3.686,237.718 1.088 C 231.527 -0.369,167.906 -0.336,162.000 1.127 M240.041 8.485 C 247.106 11.754,251.156 16.388,255.442 26.106 C 256.632 28.804,258.862 33.769,260.397 37.138 L 263.189 43.265 256.655 43.032 L 250.122 42.800 245.535 32.800 C 237.068 14.345,239.281 15.200,200.000 15.200 C 160.798 15.200,162.851 14.422,154.588 32.400 L 149.809 42.800 143.330 43.032 L 136.851 43.264 140.907 34.232 C 143.139 29.264,145.630 23.681,146.443 21.824 C 149.325 15.246,155.485 9.853,162.800 7.503 C 168.932 5.533,235.489 6.379,240.041 8.485 M101.232 17.232 C 110.829 19.713,126.400 35.443,126.400 42.657 C 126.400 42.824,123.092 43.195,119.048 43.482 C 110.558 44.085,106.157 45.843,102.386 50.138 C 101.019 51.695,99.811 52.840,99.700 52.684 C 99.590 52.528,97.731 49.520,95.568 46.000 C 90.750 38.155,81.755 28.923,76.485 26.411 C 72.023 24.286,72.137 24.049,79.418 20.314 C 87.123 16.361,94.065 15.380,101.232 17.232 M310.561 16.893 C 314.599 17.743,326.033 22.759,326.814 24.023 C 327.017 24.351,325.246 25.568,322.877 26.727 C 317.390 29.412,308.788 38.399,304.047 46.402 C 302.092 49.701,300.372 52.560,300.224 52.755 C 300.077 52.951,298.886 51.813,297.579 50.227 C 293.946 45.820,289.497 44.055,280.536 43.467 L 272.834 42.961 275.294 38.345 C 283.959 22.087,297.144 14.067,310.561 16.893 M232.661 22.873 C 234.029 23.831,243.200 41.275,243.200 42.918 C 243.200 43.073,223.760 43.200,200.000 43.200 C 176.240 43.200,156.800 43.073,156.800 42.918 C 156.800 41.275,165.971 23.831,167.339 22.873 C 170.081 20.952,229.919 20.952,232.661 22.873 M73.826 32.302 C 75.242 32.909,77.761 34.619,79.424 36.102 L 82.448 38.800 80.784 43.113 C 73.777 61.281,72.512 83.658,77.277 105.200 C 78.381 110.193,67.879 213.187,66.083 214.984 C 65.026 216.041,58.374 185.260,56.103 168.800 C 49.716 122.525,51.218 60.317,59.241 38.875 C 61.851 31.899,67.227 29.477,73.826 32.302 M336.026 32.414 C 346.695 37.930,351.233 99.404,345.151 156.000 C 342.477 180.888,334.780 217.815,333.480 212.000 C 330.596 199.107,321.562 109.773,322.684 105.246 C 327.360 86.379,326.334 64.075,319.941 45.600 L 317.587 38.800 320.594 36.103 C 325.985 31.268,331.336 29.988,336.026 32.414 M92.331 52.764 C 97.650 61.987,97.651 61.917,92.170 68.084 C 86.319 74.667,84.180 78.101,82.335 83.869 L 80.886 88.400 80.780 83.600 C 80.482 70.112,81.472 62.212,84.914 50.599 C 86.953 43.720,87.147 43.777,92.331 52.764 M317.597 61.376 C 318.647 66.818,319.194 72.908,319.183 79.041 L 319.166 88.400 317.282 83.063 C 315.150 77.022,313.480 74.409,307.441 67.664 C 302.294 61.915,302.294 61.928,306.903 53.983 C 313.552 42.521,314.021 42.846,317.597 61.376 M288.812 51.400 C 296.059 55.073,295.600 50.491,295.600 119.200 L 295.600 179.600 293.787 182.515 C 290.884 187.183,288.188 188.000,275.679 188.000 L 264.800 188.000 264.800 166.126 C 264.800 144.835,264.751 144.159,262.958 140.768 C 258.027 131.444,244.373 131.444,239.442 140.768 C 237.649 144.159,237.600 144.835,237.600 166.126 L 237.600 188.000 200.000 188.000 L 162.400 188.000 162.400 166.126 C 162.400 144.835,162.351 144.159,160.558 140.768 C 155.613 131.418,141.769 131.439,137.000 140.805 C 135.264 144.214,135.200 145.111,135.200 166.170 L 135.200 188.000 123.894 188.000 C 102.722 188.000,104.400 193.967,104.400 118.674 L 104.400 57.749 106.842 54.732 C 111.096 49.476,106.464 49.728,200.030 49.661 L 285.261 49.600 288.812 51.400 M99.872 184.201 C 103.339 191.241,108.175 193.978,118.800 194.911 L 124.400 195.403 124.400 206.844 C 124.400 220.270,125.094 221.958,131.454 224.000 L 135.192 225.200 135.196 230.943 C 135.202 239.165,135.259 239.200,148.800 239.200 C 162.370 239.200,162.400 239.181,162.400 230.832 L 162.400 224.978 165.169 224.459 C 171.994 223.178,173.884 218.634,173.471 204.494 L 173.200 195.198 200.000 195.199 L 226.800 195.200 226.800 206.741 C 226.800 220.280,227.485 221.955,233.854 224.000 L 237.592 225.200 237.596 230.943 C 237.602 239.165,237.659 239.200,251.200 239.200 C 264.770 239.200,264.800 239.181,264.800 230.832 L 264.800 224.978 267.569 224.459 C 274.380 223.181,276.285 218.624,275.871 204.595 L 275.600 195.399 281.600 194.894 C 292.706 193.959,299.650 188.746,301.542 179.920 C 302.103 177.307,302.400 157.864,302.400 123.811 L 302.400 71.701 304.705 73.909 C 307.426 76.516,310.684 82.314,311.948 86.800 C 313.019 90.603,343.994 357.900,343.998 363.370 C 344.003 371.963,330.691 389.514,321.827 392.602 C 318.468 393.772,318.887 397.891,316.394 339.200 C 315.244 312.140,314.094 289.100,313.837 288.000 C 312.119 280.630,305.380 273.206,298.348 270.934 C 293.263 269.292,108.761 268.860,102.800 270.477 C 95.536 272.446,89.212 278.327,86.797 285.356 C 86.087 287.426,85.071 304.527,83.625 338.800 C 82.455 366.520,81.251 390.210,80.949 391.444 L 80.400 393.688 76.994 391.844 C 66.338 386.074,56.000 372.019,56.000 363.302 C 56.000 357.717,86.974 90.594,88.061 86.800 C 89.365 82.251,91.604 78.107,94.605 74.688 L 97.200 71.732 97.600 126.066 L 98.000 180.400 99.872 184.201 M154.200 142.844 C 155.972 144.857,156.000 145.230,156.000 166.445 L 156.000 188.000 148.800 188.000 L 141.600 188.000 141.600 166.838 C 141.600 152.652,141.902 145.013,142.516 143.666 C 144.354 139.630,150.963 139.165,154.200 142.844 M256.600 142.844 C 258.372 144.857,258.400 145.230,258.400 166.445 L 258.400 188.000 251.200 188.000 L 244.000 188.000 244.000 166.838 C 244.000 152.652,244.302 145.013,244.916 143.666 C 246.754 139.630,253.363 139.165,256.600 142.844 M166.372 196.747 C 167.813 199.440,167.425 215.225,165.876 216.937 C 164.009 219.000,133.696 219.182,131.657 217.143 C 130.057 215.543,129.805 197.715,131.360 196.160 C 133.208 194.312,165.357 194.852,166.372 196.747 M268.640 196.160 C 270.238 197.758,269.934 215.104,268.276 216.937 C 266.409 219.000,236.096 219.182,234.057 217.143 C 232.457 215.543,232.205 197.715,233.760 196.160 C 235.118 194.802,267.282 194.802,268.640 196.160 M156.000 228.800 L 156.000 232.800 148.800 232.800 L 141.600 232.800 141.600 228.800 L 141.600 224.800 148.800 224.800 L 156.000 224.800 156.000 228.800 M258.400 228.800 L 258.400 232.800 251.200 232.800 L 244.000 232.800 244.000 228.800 L 244.000 224.800 251.200 224.800 L 258.400 224.800 258.400 228.800 M56.417 300.688 C 52.667 332.966,49.600 359.946,49.600 360.643 C 49.600 365.139,40.224 346.863,37.272 336.612 C 32.490 320.011,31.031 293.165,33.542 268.000 C 34.927 254.119,34.814 254.379,40.064 253.061 C 45.983 251.576,53.125 247.951,58.400 243.755 C 60.820 241.830,62.897 240.647,63.017 241.127 C 63.136 241.607,60.166 268.410,56.417 300.688 M351.712 250.159 C 354.291 251.342,358.180 252.713,360.356 253.206 C 365.088 254.277,365.033 254.138,366.457 268.575 C 368.725 291.555,367.571 316.790,363.501 333.194 C 360.957 343.450,350.400 365.664,350.400 360.761 C 350.400 360.095,347.340 333.176,343.600 300.941 C 339.860 268.706,336.800 241.801,336.800 241.152 C 336.800 240.409,338.692 241.460,341.912 243.991 C 344.724 246.200,349.134 248.976,351.712 250.159 M296.235 276.852 C 304.846 279.243,307.678 285.194,308.492 302.600 L 309.043 314.400 200.006 314.400 L 90.969 314.400 91.542 301.872 C 92.303 285.248,95.164 279.295,103.568 276.851 C 107.178 275.802,292.456 275.802,296.235 276.852 M309.438 326.200 L 309.676 331.200 200.038 331.200 L 90.400 331.200 90.400 325.997 L 90.400 320.794 199.800 320.997 L 309.200 321.200 309.438 326.200 M311.098 362.600 C 311.621 375.910,312.240 388.330,312.474 390.200 L 312.898 393.600 200.059 393.600 L 87.220 393.600 87.627 387.800 C 88.192 379.756,89.600 347.381,89.600 342.452 L 89.600 338.400 199.873 338.400 L 310.147 338.400 311.098 362.600 " stroke="none" fill="#000000" fill-rule="evenodd"></path></g></svg>