<svg id="svg" xmlns="http://www.w3.org/2000/svg" xmlns:xlink="http://www.w3.org/1999/xlink" width="400" height="400" viewBox="0, 0, 400,400"><g id="svgg"><path id="path0" d="M93.758 1.334 C 89.139 3.619,88.800 5.190,88.800 24.340 L 88.800 41.559 76.223 41.780 C 63.706 41.999,63.640 42.010,62.634 44.000 C 61.830 45.591,61.621 77.954,61.612 202.200 L 61.600 358.400 55.324 358.400 C 46.038 358.400,46.400 357.550,46.400 379.339 C 46.400 395.774,46.528 397.468,47.863 398.676 C 50.254 400.839,356.716 400.702,358.676 398.537 C 359.824 397.268,360.000 394.719,360.000 379.337 C 360.000 357.724,360.310 358.400,350.400 358.400 L 344.000 358.400 344.000 200.960 C 344.000 79.573,343.780 43.300,343.040 42.560 C 342.377 41.897,338.303 41.600,329.883 41.600 L 317.685 41.600 317.443 23.614 L 317.200 5.628 314.585 3.014 L 311.969 0.400 204.185 0.214 C 105.848 0.043,96.168 0.142,93.758 1.334 M309.411 35.400 L 309.621 62.400 203.211 62.400 L 96.800 62.400 96.800 35.733 C 96.800 21.067,97.041 8.825,97.336 8.530 C 97.631 8.235,145.421 8.085,203.536 8.197 L 309.200 8.400 309.411 35.400 M88.800 56.440 C 88.800 64.361,89.845 67.036,93.738 69.078 C 96.239 70.390,102.920 70.460,204.262 70.237 L 312.123 70.000 314.862 67.012 C 317.556 64.072,317.600 63.908,317.600 56.812 L 317.600 49.600 326.800 49.600 L 336.000 49.600 336.000 204.000 L 336.000 358.400 292.020 358.400 L 248.040 358.400 247.820 314.922 C 247.641 279.491,247.397 271.200,246.502 270.122 C 245.506 268.923,241.471 268.800,203.147 268.800 L 160.891 268.800 159.645 270.578 C 158.556 272.134,158.400 277.735,158.400 315.378 L 158.400 358.400 114.000 358.400 L 69.600 358.400 69.600 204.000 L 69.600 49.600 79.200 49.600 L 88.800 49.600 88.800 56.440 M89.760 88.960 C 88.391 90.329,88.391 133.671,89.760 135.040 C 91.008 136.288,132.939 136.410,135.253 135.172 C 137.040 134.216,137.693 92.763,135.972 89.547 C 134.954 87.645,91.626 87.094,89.760 88.960 M149.628 89.547 C 147.907 92.763,148.560 134.216,150.347 135.172 C 152.661 136.410,194.592 136.288,195.840 135.040 C 197.209 133.671,197.209 90.329,195.840 88.960 C 193.974 87.094,150.646 87.645,149.628 89.547 M210.045 89.778 C 208.997 91.275,208.800 94.791,208.800 112.000 C 208.800 129.209,208.997 132.725,210.045 134.222 C 211.700 136.584,254.025 137.061,256.343 134.743 C 258.231 132.855,258.231 91.145,256.343 89.257 C 254.025 86.939,211.700 87.416,210.045 89.778 M270.560 88.960 C 269.191 90.329,269.191 133.671,270.560 135.040 C 271.929 136.409,315.271 136.409,316.640 135.040 C 318.009 133.671,318.009 90.329,316.640 88.960 C 315.271 87.591,271.929 87.591,270.560 88.960 M128.800 112.000 L 128.800 128.000 112.800 128.000 L 96.800 128.000 96.800 112.000 L 96.800 96.000 112.800 96.000 L 128.800 96.000 128.800 112.000 M188.800 112.000 L 188.800 128.000 172.800 128.000 L 156.800 128.000 156.800 112.000 L 156.800 96.000 172.800 96.000 L 188.800 96.000 188.800 112.000 M249.600 112.000 L 249.600 128.000 233.200 128.000 L 216.800 128.000 216.800 112.000 L 216.800 96.000 233.200 96.000 L 249.600 96.000 249.600 112.000 M309.600 112.000 L 309.600 128.000 293.600 128.000 L 277.600 128.000 277.600 112.000 L 277.600 96.000 293.600 96.000 L 309.600 96.000 309.600 112.000 M90.057 143.657 C 88.974 144.740,88.800 148.014,88.800 167.277 L 88.800 189.640 90.852 190.420 C 94.537 191.821,132.935 191.416,135.022 189.955 C 137.556 188.179,137.844 145.993,135.337 143.724 C 133.185 141.777,91.998 141.716,90.057 143.657 M150.124 143.863 C 147.749 146.487,148.160 188.261,150.578 189.955 C 152.665 191.416,191.063 191.821,194.748 190.420 L 196.800 189.640 196.800 167.277 C 196.800 148.014,196.626 144.740,195.543 143.657 C 193.485 141.599,152.003 141.787,150.124 143.863 M210.400 144.000 C 208.881 145.519,208.800 146.667,208.800 166.800 C 208.800 186.933,208.881 188.081,210.400 189.600 C 212.586 191.786,252.760 192.099,255.822 189.955 C 258.172 188.308,258.648 147.452,256.355 144.178 C 254.502 141.533,213.028 141.372,210.400 144.000 M270.924 143.863 C 268.549 146.487,268.960 188.261,271.378 189.955 C 272.875 191.003,276.391 191.200,293.600 191.200 C 310.809 191.200,314.325 191.003,315.822 189.955 C 318.356 188.179,318.644 145.993,316.137 143.724 C 313.798 141.608,272.851 141.733,270.924 143.863 M128.800 166.800 L 128.800 183.200 112.800 183.200 L 96.800 183.200 96.800 166.800 L 96.800 150.400 112.800 150.400 L 128.800 150.400 128.800 166.800 M188.800 166.800 L 188.800 183.200 172.800 183.200 L 156.800 183.200 156.800 166.800 L 156.800 150.400 172.800 150.400 L 188.800 150.400 188.800 166.800 M249.600 166.817 L 249.600 183.233 233.400 183.017 L 217.200 182.800 216.982 167.625 C 216.862 159.278,216.940 151.988,217.157 151.425 C 217.458 150.639,221.287 150.400,233.575 150.400 L 249.600 150.400 249.600 166.817 M309.600 166.800 L 309.600 183.200 293.600 183.200 L 277.600 183.200 277.600 166.800 L 277.600 150.400 293.600 150.400 L 309.600 150.400 309.600 166.800 M89.760 198.560 C 88.391 199.929,88.391 243.271,89.760 244.640 C 91.008 245.888,132.939 246.010,135.253 244.772 C 137.040 243.816,137.693 202.363,135.972 199.147 C 134.954 197.245,91.626 196.694,89.760 198.560 M149.628 199.147 C 147.907 202.363,148.560 243.816,150.347 244.772 C 152.661 246.010,194.592 245.888,195.840 244.640 C 197.209 243.271,197.209 199.929,195.840 198.560 C 193.974 196.694,150.646 197.245,149.628 199.147 M210.045 199.378 C 208.997 200.875,208.800 204.391,208.800 221.600 C 208.800 238.809,208.997 242.325,210.045 243.822 C 211.700 246.184,254.025 246.661,256.343 244.343 C 258.231 242.455,258.231 200.745,256.343 198.857 C 254.025 196.539,211.700 197.016,210.045 199.378 M270.560 198.560 C 269.191 199.929,269.191 243.271,270.560 244.640 C 271.929 246.009,315.271 246.009,316.640 244.640 C 318.009 243.271,318.009 199.929,316.640 198.560 C 315.271 197.191,271.929 197.191,270.560 198.560 M128.800 221.600 L 128.800 237.600 112.800 237.600 L 96.800 237.600 96.800 221.600 L 96.800 205.600 112.800 205.600 L 128.800 205.600 128.800 221.600 M188.800 221.600 L 188.800 237.600 172.800 237.600 L 156.800 237.600 156.800 221.600 L 156.800 205.600 172.800 205.600 L 188.800 205.600 188.800 221.600 M249.600 221.600 L 249.600 237.600 233.200 237.600 L 216.800 237.600 216.800 221.600 L 216.800 205.600 233.200 205.600 L 249.600 205.600 249.600 221.600 M309.600 221.600 L 309.600 237.600 293.600 237.600 L 277.600 237.600 277.600 221.600 L 277.600 205.600 293.600 205.600 L 309.600 205.600 309.600 221.600 M239.200 317.600 L 239.200 358.400 202.800 358.400 L 166.400 358.400 166.400 317.600 L 166.400 276.800 202.800 276.800 L 239.200 276.800 239.200 317.600 M352.000 379.200 L 352.000 392.000 203.200 392.000 L 54.400 392.000 54.400 379.200 L 54.400 366.400 203.200 366.400 L 352.000 366.400 352.000 379.200 " stroke="none" fill="#000000" fill-rule="evenodd"></path></g></svg>