<svg id="svg" xmlns="http://www.w3.org/2000/svg" xmlns:xlink="http://www.w3.org/1999/xlink" width="400" height="400" viewBox="0, 0, 400,400"><g id="svgg"><path id="path0" d="M190.220 1.245 C 121.343 11.691,73.247 75.744,80.717 147.081 C 83.686 175.436,90.981 188.974,129.579 237.764 C 151.554 265.542,179.753 304.800,177.731 304.800 C 137.794 304.800,74.985 319.214,53.959 333.205 C -7.219 373.911,148.962 415.129,287.127 394.741 C 428.325 373.905,404.652 316.036,250.561 305.359 L 236.723 304.400 247.240 289.200 C 259.988 270.776,271.615 255.225,288.508 234.000 C 329.100 183.001,334.848 170.425,334.756 132.800 C 334.559 51.499,266.618 -10.341,190.220 1.245 M218.800 84.125 C 236.208 87.920,251.885 104.916,255.164 123.547 C 263.391 170.281,209.653 201.247,175.567 169.415 C 138.647 134.936,169.816 73.446,218.800 84.125 " stroke="none" fill="#000000" fill-rule="evenodd"></path></g></svg>