<svg id="svg" xmlns="http://www.w3.org/2000/svg" xmlns:xlink="http://www.w3.org/1999/xlink" width="400" height="400" viewBox="0, 0, 400,400"><g id="svgg"><path id="path0" d="M156.588 2.470 C 143.232 5.617,140.144 10.872,136.844 36.074 C 135.496 46.373,134.200 55.957,133.965 57.372 C 133.589 59.636,132.610 60.486,125.769 64.489 C 121.496 66.990,116.168 70.239,113.929 71.710 L 109.857 74.385 87.529 65.074 C 49.477 49.207,52.041 47.840,23.461 99.228 C -4.658 149.788,-4.745 147.197,25.887 171.761 C 40.784 183.707,44.351 186.938,44.151 188.303 C 44.013 189.237,43.783 195.487,43.639 202.194 L 43.376 214.389 24.716 229.394 C 3.403 246.533,2.066 248.175,2.150 257.111 C 2.206 263.150,0.723 260.208,24.781 302.000 C 46.378 339.517,45.117 337.655,50.825 340.447 C 58.817 344.357,61.229 343.876,86.717 333.279 C 112.675 322.486,109.278 323.227,115.009 327.111 C 117.534 328.822,122.930 331.886,127.000 333.919 C 131.070 335.952,134.400 338.046,134.400 338.571 C 134.400 341.265,141.017 380.993,142.070 384.621 C 143.453 389.386,146.957 393.382,152.221 396.195 L 155.600 398.000 197.600 398.000 L 239.600 398.000 244.000 395.928 C 255.125 390.689,256.421 387.891,260.940 359.346 L 264.400 337.492 270.400 334.189 C 273.700 332.372,279.000 329.193,282.178 327.125 L 287.955 323.363 310.978 332.982 C 337.312 343.985,339.459 344.418,347.706 340.383 C 353.128 337.731,352.414 338.801,375.592 298.547 C 404.275 248.732,404.627 253.304,370.103 227.199 L 351.805 213.363 352.296 209.282 C 352.565 207.037,352.789 200.810,352.793 195.445 L 352.800 185.689 369.974 172.002 C 401.748 146.679,401.547 150.259,373.918 102.021 C 348.377 57.426,349.139 58.363,337.886 57.747 L 332.172 57.434 309.834 66.717 C 283.715 77.571,287.461 76.823,280.908 72.492 C 277.988 70.562,272.637 67.502,269.015 65.690 C 264.251 63.308,262.321 61.900,262.038 60.599 C 261.823 59.609,260.169 49.440,258.363 38.000 C 253.960 10.103,251.265 4.891,239.995 2.474 C 235.039 1.411,161.098 1.408,156.588 2.470 M235.200 24.046 C 235.200 24.511,237.006 36.121,239.214 49.846 L 243.228 74.800 245.814 77.265 C 247.236 78.621,250.990 80.715,254.156 81.919 C 260.358 84.276,270.091 89.903,277.027 95.140 C 283.667 100.153,284.360 100.023,309.440 89.082 C 321.188 83.957,331.937 79.285,333.328 78.701 L 335.855 77.639 354.128 109.740 C 364.177 127.396,372.512 142.122,372.648 142.466 C 372.785 142.809,363.884 150.315,352.869 159.145 C 328.086 179.012,328.901 177.560,332.430 195.567 C 332.599 196.429,332.176 201.465,331.489 206.758 C 329.316 223.505,327.704 221.037,353.600 240.606 C 364.380 248.753,373.679 255.860,374.264 256.401 C 375.084 257.159,341.591 319.393,338.904 322.105 C 338.847 322.162,327.820 317.593,314.400 311.950 C 284.701 299.463,286.440 299.684,275.131 306.960 C 270.549 309.908,262.498 314.498,257.241 317.160 C 244.918 323.399,245.733 321.724,241.266 350.000 C 239.250 362.760,237.414 374.010,237.185 375.000 L 236.770 376.800 199.239 376.800 C 164.181 376.800,161.681 376.708,161.306 375.400 C 161.085 374.630,159.177 363.219,157.066 350.041 C 152.487 321.467,152.963 322.525,142.800 318.354 C 133.742 314.637,129.131 312.049,121.729 306.530 C 112.367 299.548,113.070 299.446,84.489 311.968 C 71.337 317.730,60.507 322.344,60.420 322.222 C 59.639 321.118,23.963 258.265,23.807 257.717 C 23.693 257.318,32.646 249.749,43.703 240.896 C 66.274 222.825,66.198 222.918,65.124 214.574 C 64.264 207.893,64.277 197.974,65.159 187.849 C 66.125 176.766,66.925 177.826,43.531 159.145 C 32.333 150.202,23.268 142.647,23.386 142.355 C 24.688 139.130,59.705 77.356,60.377 77.098 C 60.877 76.906,71.887 81.144,84.843 86.515 C 112.923 98.155,112.585 98.100,120.677 92.400 C 123.801 90.200,131.851 85.134,138.567 81.141 C 146.831 76.230,151.214 73.126,152.126 71.541 C 153.219 69.643,159.213 29.539,159.202 24.200 C 159.200 23.414,167.332 23.200,197.200 23.200 C 223.373 23.200,235.200 23.463,235.200 24.046 M181.200 107.188 C 106.771 122.213,78.851 213.492,132.377 266.800 C 186.646 320.847,279.404 291.220,292.379 215.695 C 303.410 151.492,244.850 94.340,181.200 107.188 M214.584 127.979 C 271.572 140.581,292.368 210.942,251.255 252.055 C 215.003 288.307,154.238 277.578,132.474 231.081 C 106.761 176.149,155.524 114.919,214.584 127.979 " stroke="none" fill="#000000" fill-rule="evenodd"></path></g></svg>