<svg id="svg" xmlns="http://www.w3.org/2000/svg" xmlns:xlink="http://www.w3.org/1999/xlink" width="400" height="400" viewBox="0, 0, 400,400"><g id="svgg"><path id="path0" d="M186.809 18.000 C 179.869 27.460,174.020 35.200,173.813 35.200 C 173.605 35.200,165.933 29.797,156.763 23.192 C 147.593 16.588,139.617 11.003,139.037 10.780 C 138.278 10.489,136.114 16.019,131.286 30.588 C 127.603 41.705,124.480 50.926,124.347 51.081 C 124.159 51.299,87.860 40.231,83.400 38.596 C 82.615 38.308,82.400 42.984,82.400 60.314 L 82.400 82.400 60.346 82.400 C 39.708 82.400,38.320 82.490,38.731 83.800 C 38.973 84.570,41.877 93.776,45.185 104.258 C 48.493 114.740,51.200 123.620,51.200 123.992 C 51.200 124.364,42.020 127.642,30.800 131.278 C 19.580 134.913,10.400 138.129,10.400 138.424 C 10.400 138.719,15.980 146.768,22.800 156.310 C 29.620 165.853,35.200 173.785,35.200 173.938 C 35.200 174.091,27.460 179.900,18.000 186.846 C 8.540 193.792,0.800 199.712,0.800 200.000 C 0.800 200.288,8.540 206.208,18.000 213.154 C 27.460 220.100,35.200 225.909,35.200 226.062 C 35.200 226.215,29.620 234.147,22.800 243.690 C 15.980 253.232,10.400 261.281,10.400 261.576 C 10.400 261.871,19.580 265.087,30.800 268.722 C 42.020 272.358,51.200 275.636,51.200 276.008 C 51.200 276.380,48.493 285.260,45.185 295.742 C 41.877 306.224,38.973 315.430,38.731 316.200 C 38.320 317.510,39.708 317.600,60.346 317.600 L 82.400 317.600 82.400 339.654 C 82.400 360.294,82.490 361.679,83.800 361.261 C 84.570 361.016,93.660 358.114,104.000 354.813 C 114.340 351.512,123.168 348.809,123.618 348.806 C 124.067 348.803,127.481 357.986,131.205 369.214 C 136.104 383.988,138.266 389.516,139.032 389.222 C 139.614 388.998,147.593 383.412,156.763 376.808 C 165.933 370.203,173.605 364.800,173.813 364.800 C 174.020 364.800,179.869 372.540,186.809 382.000 C 193.750 391.460,199.671 399.200,199.966 399.200 C 200.262 399.200,206.205 391.460,213.172 382.000 C 220.140 372.540,225.991 364.800,226.176 364.800 C 226.361 364.800,234.001 370.194,243.155 376.786 C 252.308 383.379,260.313 388.970,260.944 389.212 C 261.828 389.552,263.610 384.977,268.729 369.226 C 272.380 357.992,275.780 348.805,276.284 348.811 C 276.788 348.818,286.189 351.698,297.175 355.211 C 308.162 358.725,317.252 361.600,317.375 361.600 C 317.499 361.600,317.600 351.700,317.600 339.600 L 317.600 317.600 339.654 317.600 L 361.708 317.600 361.146 315.800 C 360.837 314.810,357.933 305.664,354.692 295.477 C 351.452 285.289,348.800 276.576,348.800 276.116 C 348.800 275.655,357.980 272.314,369.200 268.691 C 380.420 265.068,389.600 261.865,389.600 261.572 C 389.600 261.279,384.020 253.232,377.200 243.690 C 370.380 234.147,364.800 226.213,364.800 226.058 C 364.800 225.902,372.540 220.087,382.000 213.135 C 391.460 206.183,399.200 200.272,399.200 200.000 C 399.200 199.728,391.460 193.817,382.000 186.865 C 372.540 179.913,364.800 174.098,364.800 173.942 C 364.800 173.787,370.380 165.853,377.200 156.310 C 384.020 146.768,389.600 138.721,389.600 138.428 C 389.600 138.135,380.420 134.932,369.200 131.309 C 357.980 127.686,348.800 124.345,348.800 123.884 C 348.800 123.424,351.452 114.711,354.692 104.523 C 357.933 94.336,360.837 85.190,361.146 84.200 L 361.708 82.400 339.654 82.400 L 317.600 82.400 317.600 60.400 C 317.600 48.300,317.486 38.400,317.348 38.400 C 317.209 38.400,307.963 41.280,296.800 44.800 C 285.637 48.320,276.293 51.200,276.035 51.200 C 275.776 51.200,272.519 42.014,268.795 30.786 C 263.694 15.401,261.752 10.478,260.912 10.800 C 260.299 11.035,252.308 16.621,243.155 23.214 C 234.001 29.806,226.361 35.200,226.176 35.200 C 225.991 35.200,220.140 27.460,213.172 18.000 C 206.205 8.540,200.262 0.800,199.966 0.800 C 199.671 0.800,193.750 8.540,186.809 18.000 M218.800 48.429 C 332.785 55.955,396.288 193.751,329.096 287.763 C 244.933 405.521,62.145 352.298,52.414 207.200 C 46.707 122.103,123.861 42.591,207.200 47.685 C 209.620 47.833,214.840 48.168,218.800 48.429 M187.021 54.437 C 184.062 54.782,180.552 55.303,179.221 55.595 L 176.800 56.127 176.800 105.545 L 176.800 154.963 183.400 155.477 C 187.030 155.759,192.070 155.993,194.600 155.995 L 199.200 156.000 199.200 104.800 L 199.200 53.600 195.800 53.705 C 193.930 53.763,189.979 54.092,187.021 54.437 M210.400 104.864 L 210.400 156.129 221.400 155.564 C 227.450 155.253,232.670 154.842,233.000 154.652 C 234.036 154.054,233.735 56.978,232.695 56.335 C 231.645 55.686,216.838 53.643,213.000 53.617 L 210.400 53.600 210.400 104.864 M157.600 61.117 C 154.740 62.138,150.510 63.789,148.200 64.785 L 144.000 66.597 144.000 109.169 L 144.000 151.740 153.400 152.736 C 158.570 153.284,163.430 153.907,164.200 154.120 C 165.522 154.486,165.600 151.853,165.600 106.854 C 165.600 52.477,166.552 57.920,157.600 61.117 M244.800 106.650 L 244.800 154.131 253.389 153.087 C 258.113 152.514,262.976 151.825,264.196 151.557 L 266.414 151.070 266.207 108.935 L 266.000 66.800 257.600 63.489 C 252.980 61.668,248.210 59.951,247.000 59.674 L 244.800 59.170 244.800 106.650 M127.555 75.464 C 125.330 76.859,121.095 79.731,118.145 81.847 L 112.781 85.695 112.990 115.425 L 113.200 145.156 120.400 146.854 C 124.360 147.788,128.770 148.779,130.200 149.056 L 132.800 149.560 132.800 111.180 C 132.800 90.071,132.530 72.829,132.200 72.864 C 131.870 72.899,129.780 74.069,127.555 75.464 M277.600 111.521 L 277.600 149.442 284.200 147.997 C 287.830 147.203,292.060 146.226,293.600 145.826 L 296.400 145.099 296.610 115.485 L 296.819 85.871 290.610 81.424 C 283.816 76.559,279.134 73.608,278.200 73.603 C 277.870 73.601,277.600 90.664,277.600 111.521 M96.345 101.305 C 87.567 111.240,75.200 128.813,75.200 131.350 C 75.200 132.760,100.216 142.451,101.232 141.435 C 101.448 141.218,101.530 130.864,101.413 118.426 L 101.200 95.811 96.345 101.305 M308.028 119.087 L 308.000 141.773 310.149 141.234 C 313.944 140.282,331.781 133.536,333.148 132.537 C 335.433 130.866,323.594 112.803,312.628 101.227 L 308.056 96.400 308.028 119.087 M73.170 161.800 C 73.390 162.790,76.836 181.060,80.828 202.400 C 90.028 251.577,91.854 260.921,92.364 261.431 C 92.912 261.979,107.049 264.704,109.624 264.758 L 111.648 264.800 122.138 217.400 C 127.907 191.330,132.551 169.914,132.457 169.810 C 131.988 169.287,113.428 167.105,113.010 167.524 C 112.742 167.792,110.254 180.479,107.482 195.718 C 104.709 210.958,102.321 223.545,102.175 223.691 C 102.029 223.837,100.025 211.276,97.721 195.778 C 95.417 180.280,93.358 166.700,93.146 165.600 C 92.792 163.770,79.749 160.000,73.770 160.000 C 73.147 160.000,72.921 160.679,73.170 161.800 M325.400 161.867 C 318.097 163.446,317.600 163.680,317.600 165.527 C 317.600 168.690,323.225 234.691,323.519 234.986 C 323.666 235.133,325.195 235.028,326.917 234.752 L 330.048 234.252 333.461 198.526 C 335.339 178.877,336.858 162.170,336.838 161.400 C 336.790 159.639,335.446 159.694,325.400 161.867 M299.600 166.516 C 294.760 167.355,285.220 168.679,278.400 169.460 L 266.000 170.879 265.794 220.095 L 265.588 269.311 275.794 268.252 C 285.411 267.253,305.129 264.354,308.200 263.487 C 309.391 263.151,309.600 262.088,309.600 256.366 L 309.600 249.640 307.400 250.032 C 301.584 251.068,289.846 252.794,288.600 252.797 C 287.316 252.800,287.200 251.551,287.200 237.744 L 287.200 222.688 294.527 221.713 C 303.799 220.478,303.200 221.073,303.200 213.099 C 303.200 206.999,303.055 206.333,301.800 206.688 C 301.030 206.906,298.420 207.309,296.000 207.584 C 293.580 207.860,290.610 208.274,289.400 208.506 L 287.200 208.927 287.200 195.424 L 287.200 181.921 297.400 180.454 C 303.010 179.647,308.050 178.817,308.600 178.608 C 309.697 178.192,310.090 164.721,309.000 164.896 C 308.670 164.949,304.440 165.678,299.600 166.516 M154.940 172.451 C 149.479 174.195,143.169 180.561,140.718 186.800 C 136.703 197.022,137.609 246.135,141.991 255.774 C 152.669 279.268,189.926 279.253,198.490 255.753 C 202.712 244.167,201.507 196.471,196.744 186.642 C 190.663 174.095,170.852 167.369,154.940 172.451 M248.579 172.488 C 248.310 172.757,238.440 173.207,226.645 173.488 L 205.200 174.000 204.970 181.400 L 204.740 188.800 212.770 188.800 L 220.800 188.800 220.800 230.400 L 220.800 272.000 225.000 271.995 C 227.310 271.993,232.170 271.759,235.800 271.477 L 242.400 270.963 242.400 229.081 L 242.400 187.200 245.083 187.200 C 246.558 187.200,249.978 186.969,252.683 186.686 L 257.600 186.172 257.600 179.086 L 257.600 172.000 253.333 172.000 C 250.987 172.000,248.847 172.220,248.579 172.488 M175.186 188.663 C 176.431 189.908,177.841 192.338,178.320 194.063 C 179.436 198.084,179.502 247.279,178.397 251.259 C 175.794 260.628,163.470 260.058,160.799 250.445 C 159.491 245.737,159.765 194.911,161.115 191.679 C 163.493 185.989,170.920 184.397,175.186 188.663 M328.109 242.446 C 316.272 244.969,317.600 243.596,317.600 253.304 L 317.600 261.778 320.600 261.264 C 322.250 260.981,326.390 260.169,329.800 259.459 L 336.000 258.169 336.000 249.484 C 336.000 244.708,335.730 240.850,335.400 240.910 C 335.070 240.971,331.789 241.662,328.109 242.446 M77.180 272.504 C 130.075 364.302,258.347 372.207,322.136 287.600 C 326.812 281.398,333.600 270.696,333.600 269.526 C 333.600 269.209,329.010 270.177,323.400 271.677 C 253.911 290.254,142.950 289.083,76.468 269.069 C 75.112 268.661,75.194 269.056,77.180 272.504 M153.186 296.907 L 154.587 302.214 160.094 304.088 C 166.767 306.360,166.757 306.278,160.807 310.112 L 156.014 313.200 156.007 319.400 C 155.999 326.696,156.189 326.613,150.227 321.929 L 145.554 318.258 139.893 319.978 C 133.004 322.070,133.145 322.195,135.601 316.151 C 138.133 309.920,138.181 310.367,134.400 304.800 C 130.300 298.762,130.159 299.006,137.400 299.591 L 143.600 300.092 147.172 295.258 C 151.250 289.739,151.298 289.753,153.186 296.907 M262.945 296.197 L 265.871 300.183 272.221 299.629 C 277.390 299.178,278.455 299.273,277.947 300.138 C 277.603 300.722,275.990 303.182,274.363 305.605 L 271.405 310.010 273.631 315.805 C 274.855 318.992,275.657 321.600,275.414 321.600 C 275.171 321.600,272.469 320.854,269.409 319.943 L 263.845 318.286 259.190 321.943 C 253.313 326.560,253.600 326.679,253.600 319.617 L 253.600 313.634 248.254 310.048 C 243.750 307.026,243.152 306.370,244.454 305.878 C 245.304 305.557,247.980 304.533,250.400 303.604 L 254.800 301.913 256.314 296.154 C 258.033 289.617,258.115 289.618,262.945 296.197 M207.632 304.068 C 210.341 309.735,210.771 310.031,217.400 310.787 C 223.453 311.477,223.446 311.422,218.128 316.674 L 213.855 320.893 214.849 326.647 C 216.076 333.759,216.338 333.572,210.015 330.097 L 204.752 327.204 199.063 330.069 L 193.373 332.934 193.844 330.579 C 195.728 321.159,195.647 320.718,191.261 316.430 C 186.202 311.485,186.207 311.437,191.800 310.750 C 198.670 309.907,199.408 309.423,201.956 304.093 C 204.825 298.090,204.776 298.091,207.632 304.068 " stroke="none" fill="#000000" fill-rule="evenodd"></path></g></svg>